<?xml version="1.0"?>
<svg xmlns="http://www.w3.org/2000/svg" xmlns:xlink="http://www.w3.org/1999/xlink" version="1.1" id="Capa_1" x="0px" y="0px" viewBox="0 0 480 480" style="enable-background:new 0 0 480 480;" xml:space="preserve" width="512px" height="512px" class=""><g><path style="fill:#D8CA14" d="M48,88h320v384H48V88z" data-original="#FDBD40" class="" data-old_color="#EDDD10"/><path style="fill:#F3F3F3" d="M256,64c-4.418,0-8-3.582-8-8V16h-80v40c0,4.418-3.582,8-8,8s-8-3.582-8-8V8c0-4.418,3.582-8,8-8h96  c4.418,0,8,3.582,8,8v48C264,60.418,260.418,64,256,64z" data-original="#E9686A" class="active-path" data-old_color="#F2F1F1"/><path style="fill:#EFEFEF" d="M80,120h256v320H80V120z" data-original="#FCF05A" class="" data-old_color="#EDEDEB"/><g>
	<path style="fill:#F3F3F3" d="M136,192h-24c-4.418,0-8-3.582-8-8s3.582-8,8-8h24c4.418,0,8,3.582,8,8S140.418,192,136,192z" data-original="#E9686A" class="active-path" data-old_color="#F2F1F1"/>
	<path style="fill:#F3F3F3" d="M240,192h-72c-4.418,0-8-3.582-8-8s3.582-8,8-8h72c4.418,0,8,3.582,8,8S244.418,192,240,192z" data-original="#E9686A" class="active-path" data-old_color="#F2F1F1"/>
	<path style="fill:#F3F3F3" d="M272,168h32v32h-32V168z" data-original="#E9686A" class="active-path" data-old_color="#F2F1F1"/>
	<path style="fill:#F3F3F3" d="M136,256h-24c-4.418,0-8-3.582-8-8s3.582-8,8-8h24c4.418,0,8,3.582,8,8S140.418,256,136,256z" data-original="#E9686A" class="active-path" data-old_color="#F2F1F1"/>
	<path style="fill:#F3F3F3" d="M240,256h-72c-4.418,0-8-3.582-8-8s3.582-8,8-8h72c4.418,0,8,3.582,8,8S244.418,256,240,256z" data-original="#E9686A" class="active-path" data-old_color="#F2F1F1"/>
	<path style="fill:#F3F3F3" d="M272,232h32v32h-32V232z" data-original="#E9686A" class="active-path" data-old_color="#F2F1F1"/>
	<path style="fill:#F3F3F3" d="M136,320h-24c-4.418,0-8-3.582-8-8s3.582-8,8-8h24c4.418,0,8,3.582,8,8S140.418,320,136,320z" data-original="#E9686A" class="active-path" data-old_color="#F2F1F1"/>
	<path style="fill:#F3F3F3" d="M240,320h-72c-4.418,0-8-3.582-8-8s3.582-8,8-8h72c4.418,0,8,3.582,8,8S244.418,320,240,320z" data-original="#E9686A" class="active-path" data-old_color="#F2F1F1"/>
	<path style="fill:#F3F3F3" d="M272,296h32v32h-32V296z" data-original="#E9686A" class="active-path" data-old_color="#F2F1F1"/>
	<path style="fill:#F3F3F3" d="M136,384h-24c-4.418,0-8-3.582-8-8s3.582-8,8-8h24c4.418,0,8,3.582,8,8S140.418,384,136,384z" data-original="#E9686A" class="active-path" data-old_color="#F2F1F1"/>
	<path style="fill:#F3F3F3" d="M240,384h-72c-4.418,0-8-3.582-8-8s3.582-8,8-8h72c4.418,0,8,3.582,8,8S244.418,384,240,384z" data-original="#E9686A" class="active-path" data-old_color="#F2F1F1"/>
	<path style="fill:#F3F3F3" d="M272,360h32v32h-32V360z" data-original="#E9686A" class="active-path" data-old_color="#F2F1F1"/>
</g><path style="fill:#9E060A" d="M400,296h32v176h-32V296z" data-original="#B11E48" class="" data-old_color="#BF0A0F"/><path style="fill:#F3F3F3" d="M400,248h32v48h-32V248z" data-original="#E9686A" class="active-path" data-old_color="#F2F1F1"/><g>
	<path style="fill:#9E060A" d="M416,256c-4.418,0-8-3.582-8-8v-24c0-4.418,3.582-8,8-8s8,3.582,8,8v24   C424,252.418,420.418,256,416,256z" data-original="#B11E48" class="" data-old_color="#BF0A0F"/>
	<path style="fill:#9E060A" d="M104,56h208v80H104V56z" data-original="#B11E48" class="" data-old_color="#BF0A0F"/>
</g><path d="M256,0h-96c-4.418,0-8,3.582-8,8v40h-48c-4.418,0-8,3.582-8,8v24H48c-4.418,0-8,3.582-8,8v384c0,4.418,3.582,8,8,8h320  c4.418,0,8-3.582,8-8V88c0-4.418-3.582-8-8-8h-48V56c0-4.418-3.582-8-8-8h-48V8C264,3.582,260.418,0,256,0z M168,16h80v32h-80V16z   M312,144c4.418,0,8-3.582,8-8v-8h8v304H88V128h8v8c0,4.418,3.582,8,8,8H312z M360,96v368H56V96h40v16H80c-4.418,0-8,3.582-8,8v320  c0,4.418,3.582,8,8,8h256c4.418,0,8-3.582,8-8V120c0-4.418-3.582-8-8-8h-16V96H360z M304,128H112V64h192V128z" data-original="#000000" class="" style="fill:#1C1B1B" data-old_color="#1E1E1E"/><path d="M112,192h24c4.418,0,8-3.582,8-8s-3.582-8-8-8h-24c-4.418,0-8,3.582-8,8S107.582,192,112,192z" data-original="#000000" class="" style="fill:#1C1B1B" data-old_color="#1E1E1E"/><path d="M168,192h72c4.418,0,8-3.582,8-8s-3.582-8-8-8h-72c-4.418,0-8,3.582-8,8S163.582,192,168,192z" data-original="#000000" class="" style="fill:#1C1B1B" data-old_color="#1E1E1E"/><path d="M272,208h32c4.418,0,8-3.582,8-8v-32c0-4.418-3.582-8-8-8h-32c-4.418,0-8,3.582-8,8v32C264,204.418,267.582,208,272,208z   M280,176h16v16h-16V176z" data-original="#000000" class="" style="fill:#1C1B1B" data-old_color="#1E1E1E"/><path d="M136,240h-24c-4.418,0-8,3.582-8,8s3.582,8,8,8h24c4.418,0,8-3.582,8-8S140.418,240,136,240z" data-original="#000000" class="" style="fill:#1C1B1B" data-old_color="#1E1E1E"/><path d="M168,256h72c4.418,0,8-3.582,8-8s-3.582-8-8-8h-72c-4.418,0-8,3.582-8,8S163.582,256,168,256z" data-original="#000000" class="" style="fill:#1C1B1B" data-old_color="#1E1E1E"/><path d="M272,272h32c4.418,0,8-3.582,8-8v-32c0-4.418-3.582-8-8-8h-32c-4.418,0-8,3.582-8,8v32C264,268.418,267.582,272,272,272z   M280,240h16v16h-16V240z" data-original="#000000" class="" style="fill:#1C1B1B" data-old_color="#1E1E1E"/><path d="M136,304h-24c-4.418,0-8,3.582-8,8s3.582,8,8,8h24c4.418,0,8-3.582,8-8S140.418,304,136,304z" data-original="#000000" class="" style="fill:#1C1B1B" data-old_color="#1E1E1E"/><path d="M168,320h72c4.418,0,8-3.582,8-8s-3.582-8-8-8h-72c-4.418,0-8,3.582-8,8S163.582,320,168,320z" data-original="#000000" class="" style="fill:#1C1B1B" data-old_color="#1E1E1E"/><path d="M272,336h32c4.418,0,8-3.582,8-8v-32c0-4.418-3.582-8-8-8h-32c-4.418,0-8,3.582-8,8v32C264,332.418,267.582,336,272,336z   M280,304h16v16h-16V304z" data-original="#000000" class="" style="fill:#1C1B1B" data-old_color="#1E1E1E"/><path d="M136,368h-24c-4.418,0-8,3.582-8,8s3.582,8,8,8h24c4.418,0,8-3.582,8-8S140.418,368,136,368z" data-original="#000000" class="" style="fill:#1C1B1B" data-old_color="#1E1E1E"/><path d="M168,384h72c4.418,0,8-3.582,8-8s-3.582-8-8-8h-72c-4.418,0-8,3.582-8,8S163.582,384,168,384z" data-original="#000000" class="" style="fill:#1C1B1B" data-old_color="#1E1E1E"/><path d="M272,400h32c4.418,0,8-3.582,8-8v-32c0-4.418-3.582-8-8-8h-32c-4.418,0-8,3.582-8,8v32C264,396.418,267.582,400,272,400z   M280,368h16v16h-16V368z" data-original="#000000" class="" style="fill:#1C1B1B" data-old_color="#1E1E1E"/><path d="M416,216c-4.418,0-8,3.582-8,8v16h-8c-4.418,0-8,3.582-8,8v224c0,4.418,3.582,8,8,8h32c4.418,0,8-3.582,8-8V248  c0-4.418-3.582-8-8-8h-8v-16C424,219.582,420.418,216,416,216z M408,256h16v32h-16V256z M424,464h-16V304h16V464z" data-original="#000000" class="" style="fill:#1C1B1B" data-old_color="#1E1E1E"/></g> </svg>
